<svg xmlns="http://www.w3.org/2000/svg" xmlns:xlink="http://www.w3.org/1999/xlink" version="1.1" width="256"
     height="256" viewBox="0 0 256 256" xml:space="preserve">
    <g transform="translate(128 128) scale(0.72 0.72)" style="">
	<g style="stroke: none; stroke-width: 0; stroke-dasharray: none; stroke-linecap: butt; stroke-linejoin: miter; stroke-miterlimit: 10; fill: none; fill-rule: nonzero; opacity: 1;"
       transform="translate(-175.05 -175.05000000000004) scale(3.89 3.89)">
	<path d="M 85.447 72.131 H 75.82 c -3.024 0 -4.588 -1.739 -7.427 -4.897 c -1.172 -1.304 -2.631 -2.927 -4.556 -4.852 c -6.148 -5.928 -8.205 -5.928 -8.881 -5.928 c -1.256 0 -1.518 0 -1.518 2.3 v 8.633 c 0 3.503 -2.062 4.744 -7.877 4.744 c -11.032 0 -22.315 -6.745 -30.185 -18.044 C 2.74 36.372 0.002 23.763 0.002 21.592 c 0 -1.698 0.746 -3.723 4.3 -3.723 h 9.628 c 3.115 0 4.285 1.619 5.253 4.416 c 5.05 14.709 12.728 25.031 14.966 25.031 c 0.404 0 0.786 0 0.786 -2.673 V 30.466 c -0.202 -3.658 -1.45 -5.204 -2.453 -6.445 c -0.706 -0.874 -1.373 -1.699 -1.373 -2.939 c 0 -1.58 1.291 -3.213 3.45 -3.213 h 15.129 c 3.362 0 3.751 2.59 3.751 4.539 v 19.074 c 0 1.308 0.426 1.724 0.531 1.757 c 0.722 -0.003 1.48 -0.402 3.746 -2.669 c 6.699 -7.489 11.565 -19.239 11.614 -19.357 c 0.953 -2.223 2.671 -3.343 5.113 -3.343 h 9.628 c 1.68 0 2.874 0.459 3.549 1.366 c 0.637 0.856 0.748 2.008 0.331 3.424 c -1.293 5.775 -12.625 21.781 -13.107 22.461 c -0.89 1.427 -1.081 1.734 -0.026 3.09 c 0.477 0.666 1.564 1.731 2.716 2.859 c 1.275 1.249 2.721 2.666 3.889 4.046 c 5.018 5.644 7.507 9.125 8.31 11.622 c 0.578 1.98 0.103 3.187 -0.398 3.853 C 88.807 71.293 87.704 72.131 85.447 72.131 z M 54.957 54.455 c 1.647 0 4.306 0.739 10.282 6.501 c 1.975 1.975 3.454 3.62 4.642 4.941 c 2.892 3.217 3.903 4.234 5.939 4.234 h 9.627 c 1.116 0 1.929 -0.264 2.287 -0.741 c 0.41 -0.547 0.273 -1.427 0.086 -2.067 c -0.893 -2.776 -4.695 -7.284 -7.908 -10.898 c -1.123 -1.326 -2.533 -2.708 -3.777 -3.927 c -1.27 -1.243 -2.365 -2.316 -2.92 -3.093 c -1.759 -2.26 -1.188 -3.547 -0.034 -5.394 c 0.149 -0.213 11.659 -16.469 12.826 -21.816 l 0.019 -0.074 c 0.164 -0.546 0.295 -1.283 -0.009 -1.692 c -0.27 -0.361 -0.959 -0.56 -1.944 -0.56 h -9.628 c -1.634 0 -2.642 0.653 -3.27 2.117 c -0.196 0.479 -5.036 12.167 -12.006 19.958 c -2.285 2.289 -3.568 3.292 -5.232 3.292 c -1.203 0 -2.497 -1.175 -2.497 -3.753 V 22.408 c 0 -2.368 -0.661 -2.539 -1.751 -2.539 H 34.56 c -1 0 -1.45 0.709 -1.45 1.213 c 0 0.51 0.301 0.906 0.928 1.682 c 1.058 1.31 2.657 3.289 2.896 7.647 l 0.001 14.231 c 0 2.365 -0.215 4.673 -2.786 4.673 c -4.465 0 -12.583 -13.926 -16.857 -26.378 c -0.854 -2.465 -1.514 -3.068 -3.362 -3.068 H 4.303 c -2.3 0 -2.3 0.956 -2.3 1.723 c 0 1.695 2.609 13.96 15.01 31.343 c 7.502 10.771 18.172 17.196 28.55 17.196 c 5.877 0 5.877 -1.211 5.877 -2.744 v -8.633 C 51.439 56.031 52.015 54.455 54.957 54.455 z"
          style="stroke: none; stroke-width: 1; stroke-dasharray: none; stroke-linecap: butt; stroke-linejoin: miter; stroke-miterlimit: 10; fill: rgb(136,136,136); fill-rule: nonzero; opacity: 1;"
          transform=" matrix(1 0 0 1 0 0) " stroke-linecap="round"/>
</g>
</g>
</svg>